<svg width="90" height="90" viewBox="0 0 90 90" fill="none" xmlns="http://www.w3.org/2000/svg">
<g clip-path="url(#clip0_36_52)">
<path d="M45.0135 0C57.4347 0 68.6949 5.04951 76.8497 13.1773C85.0045 21.3321 90.027 32.5653 90.027 45.0135C90.027 57.4347 84.9775 68.6949 76.8497 76.8497C68.6949 85.0045 57.4617 90.027 45.0135 90.027C32.5923 90.027 21.3321 84.9775 13.1773 76.8497C5.0225 68.6949 0 57.4617 0 45.0135C0 32.5923 5.0495 21.3321 13.1773 13.1773C21.3321 5.0225 32.5653 0 45.0135 0ZM49.901 30.7021H58.0288V20.9541H49.901C43.6364 20.9541 38.5329 26.0576 38.5329 32.3222V37.2097H32.0252V46.9577H38.5329V72.9613H48.2808V46.9577H56.4086L58.0288 37.2097H48.2808V32.3222C48.2808 31.4311 49.0369 30.7021 49.901 30.7021ZM74.5545 15.4996C66.9937 7.93879 56.5707 3.26733 45.0405 3.26733C33.5104 3.26733 23.0603 7.93879 15.5266 15.4996C7.9658 23.0603 3.29433 33.4833 3.29433 45.0135C3.29433 56.5437 7.9658 66.9937 15.5266 74.5275C23.0873 82.0882 33.5104 86.7597 45.0405 86.7597C56.5707 86.7597 67.0207 82.0882 74.5545 74.5275C82.1152 66.9667 86.7867 56.5437 86.7867 45.0135C86.7867 33.4833 82.1152 23.0333 74.5545 15.4996Z" fill="white"/>
</g>
<defs>
<clipPath id="clip0_36_52">
<rect width="90" height="90" fill="white"/>
</clipPath>
</defs>
</svg>
