<svg width="90" height="90" viewBox="0 0 90 90" fill="none" xmlns="http://www.w3.org/2000/svg">
<g clip-path="url(#clip0_36_54)">
<path fill-rule="evenodd" clip-rule="evenodd" d="M44.8785 31.7012C52.5743 31.7012 58.8119 37.9388 58.8119 45.6346C58.8119 53.3303 52.5743 59.568 44.8785 59.568C37.1827 59.568 30.9451 53.3303 30.9451 45.6346C30.9451 37.9388 37.1827 31.7012 44.8785 31.7012ZM34.4824 20.333H55.5446C63.4563 20.333 69.91 26.7327 69.91 34.5095V55.5176C69.91 63.3213 63.4563 69.694 55.5446 69.694H34.4824C26.5707 69.694 20.117 63.3213 20.117 55.5176V34.5095C20.117 26.7057 26.5977 20.333 34.4824 20.333ZM58.3528 29.757C59.595 29.757 60.6211 30.7561 60.6211 32.0252C60.6211 33.2673 59.622 34.2934 58.3528 34.2934C57.1107 34.2934 56.0846 33.2943 56.0846 32.0252C56.0846 30.7831 57.0837 29.757 58.3528 29.757ZM36.2106 24.3564H53.8164C60.432 24.3564 65.8326 29.73 65.8326 36.3186V54.0324C65.8326 60.6211 60.432 65.9946 53.8164 65.9946H36.2106C29.595 65.9946 24.1944 60.6211 24.1944 54.0324V36.3186C24.1944 29.73 29.595 24.3564 36.2106 24.3564ZM45.0135 0C57.4347 0 68.6949 5.0495 76.8497 13.1773C85.0045 21.3321 90.027 32.5653 90.027 45.0135C90.027 57.4347 84.9775 68.6949 76.8497 76.8497C68.6949 85.0045 57.4617 90.027 45.0135 90.027C32.5923 90.027 21.3321 84.9775 13.1773 76.8497C5.0225 68.6949 0 57.4617 0 45.0135C0 32.5923 5.0495 21.3321 13.1773 13.1773C21.3321 5.0225 32.5653 0 45.0135 0ZM74.5275 15.4725C66.9667 7.91179 56.5437 3.24032 45.0135 3.24032C33.4833 3.24032 23.0333 7.91179 15.4995 15.4725C7.93879 23.0333 3.26733 33.4563 3.26733 44.9865C3.26733 56.5167 7.93879 66.9667 15.4995 74.5004C23.0603 82.0612 33.4833 86.7327 45.0135 86.7327C56.5437 86.7327 66.9937 82.0612 74.5275 74.5004C82.0882 66.9397 86.7597 56.5167 86.7597 44.9865C86.7597 33.4563 82.0882 23.0063 74.5275 15.4725ZM44.8785 36.3726C49.955 36.3726 54.0864 40.504 54.0864 45.5806C54.0864 50.6571 49.955 54.7885 44.8785 54.7885C39.775 54.7885 35.6706 50.6571 35.6706 45.5806C35.6706 40.504 39.802 36.3726 44.8785 36.3726Z" fill="white"/>
</g>
<defs>
<clipPath id="clip0_36_54">
<rect width="90" height="90" fill="white"/>
</clipPath>
</defs>
</svg>
